<svg width="1600" height="1000" viewBox="0 0 1600 1000" fill="none" xmlns="http://www.w3.org/2000/svg">
  <defs>
    <linearGradient id="bg" x1="0" y1="0" x2="1600" y2="1000" gradientUnits="userSpaceOnUse">
      <stop offset="0" stop-color="#050505"/>
      <stop offset="0.45" stop-color="#161616"/>
      <stop offset="0.75" stop-color="#2B1205"/>
      <stop offset="1" stop-color="#050505"/>
    </linearGradient>
    <radialGradient id="glowA" cx="0" cy="0" r="1" gradientUnits="userSpaceOnUse" gradientTransform="translate(1240 220) rotate(119) scale(580 700)">
      <stop stop-color="#FF6A00" stop-opacity="0.95"/>
      <stop offset="1" stop-color="#FF6A00" stop-opacity="0"/>
    </radialGradient>
    <radialGradient id="glowB" cx="0" cy="0" r="1" gradientUnits="userSpaceOnUse" gradientTransform="translate(260 120) rotate(68) scale(480 620)">
      <stop stop-color="#FFFFFF" stop-opacity="0.14"/>
      <stop offset="1" stop-color="#FFFFFF" stop-opacity="0"/>
    </radialGradient>
    <linearGradient id="track" x1="180" y1="900" x2="1410" y2="320" gradientUnits="userSpaceOnUse">
      <stop stop-color="#0C0C0C"/>
      <stop offset="1" stop-color="#1B1B1B"/>
    </linearGradient>
    <linearGradient id="orangeLine" x1="420" y1="900" x2="1480" y2="360" gradientUnits="userSpaceOnUse">
      <stop stop-color="#FF6A00" stop-opacity="0"/>
      <stop offset="0.12" stop-color="#FF6A00"/>
      <stop offset="0.55" stop-color="#FFD2A8"/>
      <stop offset="1" stop-color="#FF6A00" stop-opacity="0"/>
    </linearGradient>
    <filter id="blur" x="0" y="0" width="1600" height="1000" filterUnits="userSpaceOnUse" color-interpolation-filters="sRGB">
      <feGaussianBlur stdDeviation="22"/>
    </filter>
    <filter id="shadow" x="426" y="352" width="733" height="348" filterUnits="userSpaceOnUse" color-interpolation-filters="sRGB">
      <feOffset dy="18"/>
      <feGaussianBlur stdDeviation="28"/>
      <feColorMatrix type="matrix" values="0 0 0 0 0 0 0 0 0 0 0 0 0 0 0 0 0 0 0.35 0"/>
    </filter>
  </defs>
  <rect width="1600" height="1000" fill="url(#bg)"/>
  <ellipse cx="1240" cy="220" rx="470" ry="350" fill="url(#glowA)"/>
  <ellipse cx="260" cy="120" rx="360" ry="260" fill="url(#glowB)"/>
  <g filter="url(#blur)" opacity="0.9">
    <path d="M101 799C355 684 529 644 740 632C987 617 1179 525 1485 305" stroke="#FF6A00" stroke-width="36" stroke-linecap="round"/>
    <path d="M232 854C462 751 654 707 859 690C1079 672 1240 607 1510 447" stroke="#FFFFFF" stroke-opacity="0.22" stroke-width="16" stroke-linecap="round"/>
    <path d="M0 706C193 651 404 598 578 610C864 630 1120 569 1602 310" stroke="#FF7E2F" stroke-opacity="0.28" stroke-width="18" stroke-linecap="round"/>
  </g>
  <path d="M180 1000C450 864 705 785 1016 673C1264 584 1438 473 1600 315V1000H180Z" fill="url(#track)"/>
  <path d="M391 880C651 764 835 694 1056 624C1248 562 1386 487 1511 398" stroke="url(#orangeLine)" stroke-width="10" stroke-linecap="round"/>
  <path d="M349 913C619 783 832 711 1064 640C1255 581 1396 509 1525 419" stroke="#FFFFFF" stroke-opacity="0.25" stroke-width="3" stroke-dasharray="16 14"/>
  <g filter="url(#shadow)">
    <ellipse cx="791" cy="640" rx="290" ry="42" fill="#000000" fill-opacity="0.45"/>
  </g>
  <g>
    <path d="M493 578C547 531 626 492 741 472C828 457 920 456 1004 466C1031 469 1057 482 1072 498L1114 543C1126 556 1131 572 1125 585C1117 602 1096 614 1070 617L1002 625L952 671H602L575 627L506 620C482 617 462 606 453 591C444 576 459 607 493 578Z" fill="#F3F3F3"/>
    <path d="M653 492C774 462 946 462 1036 482L1060 540H585L653 492Z" fill="#FF6A00"/>
    <path d="M647 510C755 486 903 486 984 501L1000 539H606L647 510Z" fill="#0D0D0D"/>
    <path d="M738 491C806 479 889 480 947 489L936 538H741L738 491Z" fill="#2D2D2D"/>
    <path d="M572 607H1003L967 659H608L572 607Z" fill="#FF6A00"/>
    <path d="M539 614H612L634 671H576C555 671 538 654 538 633V614H539Z" fill="#F3F3F3"/>
    <path d="M964 614H1052V633C1052 654 1035 671 1014 671H950L964 614Z" fill="#F3F3F3"/>
    <circle cx="654" cy="670" r="56" fill="#0C0C0C"/>
    <circle cx="654" cy="670" r="27" fill="#F3F3F3" fill-opacity="0.9"/>
    <circle cx="949" cy="670" r="56" fill="#0C0C0C"/>
    <circle cx="949" cy="670" r="27" fill="#F3F3F3" fill-opacity="0.9"/>
    <path d="M508 575L437 590L451 551L504 544L508 575Z" fill="#FF6A00"/>
    <path d="M1114 556L1177 542L1158 582L1117 589L1114 556Z" fill="#FF6A00"/>
  </g>
  <g opacity="0.35">
    <path d="M1170 160L1275 118" stroke="#FFFFFF" stroke-width="3" stroke-linecap="round"/>
    <path d="M1116 238L1306 197" stroke="#FFFFFF" stroke-width="2" stroke-linecap="round"/>
    <path d="M1141 298L1353 286" stroke="#FFFFFF" stroke-width="2" stroke-linecap="round"/>
  </g>
</svg>
